<svg width="240" height="70" viewBox="0 0 240 70" fill="none" xmlns="http://www.w3.org/2000/svg">
<path d="M82.9205 12.3761L69.7629 37.4677V51.8999H60.0499V37.4677L46.8923 12.3761H56.944L62.1958 23.2152L64.9629 29.8025L67.7864 23.2152L73.0382 12.3761H82.9205Z" fill="black"/>
<path d="M85.1332 51.8999V12.3761H114.159V20.3408H94.8461V28.3653H110.206V35.8509H94.8461V43.9353H114.893V51.8999H85.1332Z" fill="black"/>
<path d="M45.7874 12.3761V51.8999H36.0744V12.3761H45.7874Z" fill="black"/>
<path d="M0.350342 51.8999V12.3761H18.4774C23.0703 12.3761 26.4586 13.2944 28.6422 15.1308C30.8257 16.9673 31.9175 19.6022 31.9175 23.0356C31.9175 25.2714 31.2963 27.2074 30.054 28.8444C28.8116 30.4813 26.9103 31.4993 24.3503 31.8985V31.9584C27.2115 32.3575 29.3385 33.4157 30.7316 35.1322C32.162 36.809 32.8775 38.8451 32.8775 41.2405C32.8775 44.6338 31.7292 47.2687 29.4328 49.1452C27.1739 50.9816 23.8045 51.8999 19.3245 51.8999H0.350342ZM9.72445 28.5449H16.7833C20.2468 28.5449 21.9786 27.1077 21.9786 24.2333C21.9786 21.3588 20.2468 19.9216 16.7833 19.9216H9.72445V28.5449ZM9.72445 44.6539H17.6868C21.188 44.6539 22.9386 43.1768 22.9386 40.2224C22.9386 37.348 21.188 35.9107 17.6868 35.9107H9.72445V44.6539Z" fill="black"/>
<path d="M130.808 9.80708V51.8999H120.464V9.80708H130.808Z" fill="#707070"/>
<path d="M182.023 12.3761V29.9223L195.35 12.3761H206.136L193.486 28.4252L206.813 51.8999H195.802L186.54 34.9526L182.023 40.7614V51.8999H172.31V12.3761H182.023Z" fill="#707070"/>
<path d="M223.552 11.7773C227.016 11.7773 230.065 12.3562 232.7 13.5139C235.373 14.6318 237.689 16.2886 239.646 18.4844L234.959 25.1315C233.341 23.335 231.59 21.9975 229.707 21.1193C227.863 20.201 225.755 19.7419 223.383 19.7419C221.312 19.7419 219.825 20.1012 218.922 20.8199C218.018 21.5385 217.566 22.4167 217.566 23.4548C217.566 24.2932 217.924 25.0118 218.639 25.6106C219.392 26.1696 220.597 26.6487 222.253 27.0478L228.522 28.545C232.249 29.4633 234.978 30.8005 236.71 32.5572C238.442 34.3139 239.308 36.6494 239.308 39.5637C239.308 42.3582 238.63 44.7338 237.275 46.69C235.919 48.6063 234.056 50.0635 231.684 51.0615C229.312 52.0197 226.602 52.4988 223.552 52.4988C219.788 52.4988 216.343 51.8601 213.218 50.5824C210.093 49.265 207.609 47.5484 205.764 45.4324L210.451 38.5457C211.844 40.2623 213.726 41.6995 216.098 42.8573C218.47 43.9751 220.917 44.5341 223.439 44.5341C227.355 44.5341 229.312 43.3164 229.312 40.8812C229.312 40.0428 229.011 39.3442 228.409 38.7852C227.844 38.1864 226.79 37.6872 225.246 37.2881L218.357 35.6712C216.249 35.1921 214.366 34.5133 212.71 33.6351C211.091 32.7569 209.811 31.5991 208.87 30.1618C207.929 28.6848 207.458 26.8481 207.458 24.6525C207.458 22.1771 208.098 19.9815 209.378 18.0652C210.658 16.1089 212.503 14.5719 214.912 13.4541C217.321 12.3362 220.201 11.7773 223.552 11.7773Z" fill="#707070"/>
<path d="M138.78 51.8999V12.3761H167.806V20.3408H148.493V28.3653H163.853V35.8509H148.493V43.9353H168.54V51.8999H138.78Z" fill="#707070"/>
<path d="M240 0.998075H0V9.98075H240V0.998075Z" fill="#707070"/>
<path d="M14.5388 58.9962H12.6047V57.7386H18.0117V58.9962H16.1341V69.8653H14.5388V58.9962ZM23.3494 57.7386H27.7824V58.9962H24.9447V63.0085H27.2459V64.2062H24.9447V68.6526H27.8106V69.8653H23.3494V57.7386ZM33.3337 57.7386H34.929V63.4576L37.5549 57.7386H39.0373L36.7784 63.0833L39.4043 69.8653H37.8514L35.6631 64.1762L34.929 65.5835V69.8653H33.3337V57.7386ZM47.2554 70C46.2954 70 45.5613 69.6856 45.0531 69.0568C44.5542 68.428 44.2766 67.5648 44.2201 66.4668L45.6319 66.0626C45.6791 66.8411 45.8202 67.4699 46.0554 67.949C46.3002 68.428 46.7 68.6676 47.2554 68.6676C47.6696 68.6676 47.9802 68.5478 48.1872 68.3083C48.4038 68.0588 48.5119 67.7043 48.5119 67.2453C48.5119 66.7462 48.4131 66.3321 48.2154 66.0027C48.0178 65.6733 47.7024 65.3089 47.2695 64.9098L45.3495 63.1133C44.9636 62.754 44.6812 62.3698 44.5025 61.9605C44.3331 61.5413 44.2484 61.0323 44.2484 60.4334C44.2484 59.5451 44.4884 58.8564 44.9684 58.3674C45.4484 57.8785 46.1026 57.6338 46.9307 57.6338C47.8342 57.6338 48.5167 57.8883 48.9778 58.3974C49.4389 58.9064 49.7167 59.6948 49.8107 60.7628L48.4554 61.1521C48.4083 60.4433 48.2767 59.8996 48.0601 59.5202C47.8532 59.131 47.4765 58.9363 46.9307 58.9363C46.5261 58.9363 46.2155 59.051 45.999 59.2807C45.7824 59.5001 45.6742 59.8295 45.6742 60.2688C45.6742 60.6281 45.7307 60.9326 45.8437 61.182C45.9566 61.4215 46.1494 61.6662 46.4225 61.9156L48.3566 63.7121C48.8555 64.1813 49.2508 64.6903 49.5425 65.2392C49.8438 65.788 49.9943 66.412 49.9943 67.1106C49.9943 67.999 49.7401 68.7026 49.2319 69.2215C48.7237 69.7404 48.0649 70 47.2554 70ZM56.7236 58.9962H54.7894V57.7386H60.1965V58.9962H58.3189V69.8653H56.7236V58.9962ZM65.6188 57.7386H67.1859V69.8653H65.6188V57.7386ZM65.6329 54.5648H67.1576V56.3463H65.6329V54.5648ZM73.2714 57.7386H74.8667V68.6526H77.7891V69.8653H73.2714V57.7386ZM99.7911 65.5835L97.3206 57.7386H98.8029L100.553 63.5924L102.276 57.7386H103.772L101.316 65.5835V69.8653H99.7911V65.5835ZM110.563 57.7386H112.101L114.544 69.8653H113.033L112.511 66.8111H110.181L109.631 69.8653H108.134L110.563 57.7386ZM112.299 65.5985L111.339 60.134L110.393 65.5985H112.299ZM119.94 57.7386H121.027L124.274 65.7931V57.7386H125.601V69.8653H124.584L121.295 61.5862V69.8653H119.94V57.7386ZM149.507 70C148.707 70 148.081 69.8302 147.629 69.491C147.187 69.1517 146.881 68.6774 146.711 68.0687C146.542 67.46 146.457 66.6965 146.457 65.7781V57.7386H147.982V65.853C147.982 66.7713 148.081 67.4699 148.278 67.949C148.486 68.428 148.895 68.6676 149.507 68.6676C150.119 68.6676 150.523 68.428 150.721 67.949C150.928 67.4699 151.031 66.7713 151.031 65.853V57.7386H152.542V65.7781C152.542 66.6965 152.457 67.46 152.288 68.0687C152.118 68.6774 151.813 69.1517 151.37 69.491C150.928 69.8302 150.307 70 149.507 70ZM147.53 54.2653H149.055V55.9271H147.53V54.2653ZM149.958 54.2653H151.483V55.9271H149.958V54.2653ZM158.457 57.7386H160.758C161.916 57.7386 162.763 57.9931 163.299 58.5022C163.845 59.0013 164.118 59.8196 164.118 60.9574C164.118 62.5144 163.648 63.4576 162.706 63.787L164.33 69.8653H162.791L161.295 64.1762H160.052V69.8653H158.457V57.7386ZM160.659 62.9636C161.346 62.9636 161.836 62.8189 162.128 62.5294C162.429 62.2399 162.579 61.7159 162.579 60.9574C162.579 60.4583 162.527 60.069 162.424 59.7897C162.32 59.5001 162.137 59.2905 161.873 59.1609C161.61 59.0211 161.238 58.9513 160.758 58.9513H160.052V62.9636H160.659ZM172.963 70C172.164 70 171.538 69.8302 171.086 69.491C170.644 69.1517 170.338 68.6774 170.168 68.0687C169.999 67.46 169.914 66.6965 169.914 65.7781V57.7386H171.439V65.853C171.439 66.7713 171.538 67.4699 171.735 67.949C171.942 68.428 172.352 68.6676 172.963 68.6676C173.575 68.6676 173.98 68.428 174.178 67.949C174.385 67.4699 174.488 66.7713 174.488 65.853V57.7386H175.999V65.7781C175.999 66.6965 175.914 67.46 175.745 68.0687C175.575 68.6774 175.269 69.1517 174.827 69.491C174.385 69.8302 173.764 70 172.963 70ZM170.987 54.2653H172.512V55.9271H170.987V54.2653ZM173.415 54.2653H174.94V55.9271H173.415V54.2653ZM181.914 57.7386H183.001L186.248 65.7931V57.7386H187.575V69.8653H186.558L183.269 61.5862V69.8653H181.914V57.7386ZM193.608 57.7386H195.203V68.6526H198.125V69.8653H193.608V57.7386ZM203.454 57.7386H207.887V58.9962H205.049V63.0085H207.351V64.2062H205.049V68.6526H207.915V69.8653H203.454V57.7386ZM213.438 57.7386H215.74C216.897 57.7386 217.744 57.9931 218.281 58.5022C218.827 59.0013 219.1 59.8196 219.1 60.9574C219.1 62.5144 218.629 63.4576 217.688 63.787L219.311 69.8653H217.773L216.276 64.1762H215.034V69.8653H213.438V57.7386ZM215.641 62.9636C216.328 62.9636 216.817 62.8189 217.109 62.5294C217.41 62.2399 217.561 61.7159 217.561 60.9574C217.561 60.4583 217.509 60.069 217.406 59.7897C217.302 59.5001 217.119 59.2905 216.855 59.1609C216.592 59.0211 216.22 58.9513 215.74 58.9513H215.034V62.9636H215.641ZM225.079 57.7386H226.646V69.8653H225.079V57.7386ZM225.093 54.5648H226.618V56.3463H225.093V54.5648Z" fill="black"/>
<path d="M40.9412 10.7298C43.6701 10.7298 45.8823 8.38381 45.8823 5.48989C45.8823 2.59598 43.6701 0.25 40.9412 0.25C38.2122 0.25 36 2.59598 36 5.48989C36 8.38381 38.2122 10.7298 40.9412 10.7298Z" fill="black"/>
<path fill-rule="evenodd" clip-rule="evenodd" d="M40.9412 0.499038C38.3644 0.499038 36.25 2.71884 36.25 5.48941C36.25 8.25999 38.3644 10.4798 40.9412 10.4798C43.518 10.4798 45.6323 8.25999 45.6323 5.48941C45.6323 2.71884 43.518 0.499038 40.9412 0.499038ZM35.75 5.48941C35.75 2.47216 38.0601 0 40.9412 0C43.8222 0 46.1323 2.47216 46.1323 5.48941C46.1323 8.50666 43.8222 10.9788 40.9412 10.9788C38.0601 10.9788 35.75 8.50666 35.75 5.48941Z" fill="white"/>
</svg>
