<svg width="85" height="24" viewBox="0 0 85 24" fill="none" xmlns="http://www.w3.org/2000/svg">
<path d="M29.3677 4.76001L24.7077 13.14V17.96H21.2677V13.14L16.6077 4.76001H20.1677L22.0277 8.38001L23.0077 10.58L24.0077 8.38001L25.8677 4.76001H29.3677Z" fill="black"/>
<path d="M30.1514 17.96V4.76001H40.4314V7.42001H33.5914V10.1H39.0314V12.6H33.5914V15.3H40.6914V17.96H30.1514Z" fill="black"/>
<path d="M16.2164 4.76001V17.96H12.7764V4.76001H16.2164Z" fill="black"/>
<path d="M0.124069 17.96V4.76001H6.54407C8.17074 4.76001 9.37074 5.06668 10.1441 5.68001C10.9174 6.29334 11.3041 7.17334 11.3041 8.32001C11.3041 9.06668 11.0841 9.71334 10.6441 10.26C10.2041 10.8067 9.53074 11.1467 8.62407 11.28V11.3C9.6374 11.4333 10.3907 11.7867 10.8841 12.36C11.3907 12.92 11.6441 13.6 11.6441 14.4C11.6441 15.5333 11.2374 16.4133 10.4241 17.04C9.62407 17.6533 8.43074 17.96 6.84407 17.96H0.124069ZM3.44407 10.16H5.94407C7.17074 10.16 7.78407 9.68001 7.78407 8.72001C7.78407 7.76001 7.17074 7.28001 5.94407 7.28001H3.44407V10.16ZM3.44407 15.54H6.26407C7.50407 15.54 8.12407 15.0467 8.12407 14.06C8.12407 13.1 7.50407 12.62 6.26407 12.62H3.44407V15.54Z" fill="black"/>
<path d="M46.328 3.94202V18H42.6644V3.94202H46.328Z" fill="#878787"/>
<path d="M64.4664 4.76001V10.62L69.1864 4.76001H73.0064L68.5264 10.12L73.2464 17.96H69.3464L66.0664 12.3L64.4664 14.24V17.96H61.0264V4.76001H64.4664Z" fill="#878787"/>
<path d="M79.1747 4.56C80.4014 4.56 81.4814 4.75333 82.4147 5.14C83.3614 5.51333 84.1814 6.06666 84.8747 6.8L83.2147 9.02C82.6414 8.42 82.0214 7.97333 81.3547 7.68C80.7014 7.37333 79.9547 7.22 79.1147 7.22C78.3814 7.22 77.8547 7.34 77.5347 7.58C77.2147 7.82 77.0547 8.11333 77.0547 8.46C77.0547 8.74 77.1814 8.98 77.4347 9.18C77.7014 9.36666 78.128 9.52666 78.7147 9.66L80.9347 10.16C82.2547 10.4667 83.2214 10.9133 83.8347 11.5C84.448 12.0867 84.7547 12.8667 84.7547 13.84C84.7547 14.7733 84.5147 15.5667 84.0347 16.22C83.5547 16.86 82.8947 17.3467 82.0547 17.68C81.2147 18 80.2547 18.16 79.1747 18.16C77.8414 18.16 76.6214 17.9467 75.5147 17.52C74.408 17.08 73.528 16.5067 72.8747 15.8L74.5347 13.5C75.028 14.0733 75.6947 14.5533 76.5347 14.94C77.3747 15.3133 78.2414 15.5 79.1347 15.5C80.5214 15.5 81.2147 15.0933 81.2147 14.28C81.2147 14 81.108 13.7667 80.8947 13.58C80.6947 13.38 80.3214 13.2133 79.7747 13.08L77.3347 12.54C76.588 12.38 75.9214 12.1533 75.3347 11.86C74.7614 11.5667 74.308 11.18 73.9747 10.7C73.6414 10.2067 73.4747 9.59333 73.4747 8.86C73.4747 8.03333 73.7014 7.3 74.1547 6.66C74.608 6.00666 75.2614 5.49333 76.1147 5.12C76.968 4.74666 77.988 4.56 79.1747 4.56Z" fill="#878787"/>
<path d="M49.1514 17.96V4.76001H59.4314V7.42001H52.5914V10.1H58.0314V12.6H52.5914V15.3H59.6914V17.96H49.1514Z" fill="#878787"/>
<path d="M0 0.940002H85V3.88H0V0.940002Z" fill="#878787"/>
<path d="M5.14916 19.97H4.46416V19.55H6.37916V19.97H5.71416V23.6H5.14916V19.97Z" fill="black"/>
<path d="M8.26959 19.55H9.83959V19.97H8.83459V21.31H9.64959V21.71H8.83459V23.195H9.84959V23.6H8.26959V19.55Z" fill="black"/>
<path d="M11.8057 19.55H12.3707V21.46L13.3007 19.55H13.8257L13.0257 21.335L13.9557 23.6H13.4057L12.6307 21.7L12.3707 22.17V23.6H11.8057V19.55Z" fill="black"/>
<path d="M16.7363 23.645C16.3963 23.645 16.1363 23.54 15.9563 23.33C15.7796 23.12 15.6813 22.8317 15.6613 22.465L16.1613 22.33C16.178 22.59 16.228 22.8 16.3113 22.96C16.398 23.12 16.5396 23.2 16.7363 23.2C16.883 23.2 16.993 23.16 17.0663 23.08C17.143 22.9967 17.1813 22.8783 17.1813 22.725C17.1813 22.5583 17.1463 22.42 17.0763 22.31C17.0063 22.2 16.8946 22.0783 16.7413 21.945L16.0613 21.345C15.9246 21.225 15.8246 21.0967 15.7613 20.96C15.7013 20.82 15.6713 20.65 15.6713 20.45C15.6713 20.1533 15.7563 19.9233 15.9263 19.76C16.0963 19.5967 16.328 19.515 16.6213 19.515C16.9413 19.515 17.183 19.6 17.3463 19.77C17.5096 19.94 17.608 20.2033 17.6413 20.56L17.1613 20.69C17.1446 20.4533 17.098 20.2717 17.0213 20.145C16.948 20.015 16.8146 19.95 16.6213 19.95C16.478 19.95 16.368 19.9883 16.2913 20.065C16.2146 20.1383 16.1763 20.2483 16.1763 20.395C16.1763 20.515 16.1963 20.6167 16.2363 20.7C16.2763 20.78 16.3446 20.8617 16.4413 20.945L17.1263 21.545C17.303 21.7017 17.443 21.8717 17.5463 22.055C17.653 22.2383 17.7063 22.4467 17.7063 22.68C17.7063 22.9767 17.6163 23.2117 17.4363 23.385C17.2563 23.5583 17.023 23.645 16.7363 23.645Z" fill="black"/>
<path d="M20.0896 19.97H19.4046V19.55H21.3196V19.97H20.6546V23.6H20.0896V19.97Z" fill="black"/>
<path d="M23.24 19.55H23.795V23.6H23.24V19.55ZM23.245 18.49H23.785V19.085H23.245V18.49Z" fill="black"/>
<path d="M25.9503 19.55H26.5152V23.195H27.5503V23.6H25.9503V19.55Z" fill="black"/>
<path d="M35.3427 22.17L34.4677 19.55H34.9927L35.6127 21.505L36.2227 19.55H36.7527L35.8827 22.17V23.6H35.3427V22.17Z" fill="black"/>
<path d="M39.1576 19.55H39.7026L40.5676 23.6H40.0326L39.8476 22.58H39.0226L38.8276 23.6H38.2976L39.1576 19.55ZM39.7726 22.175L39.4326 20.35L39.0976 22.175H39.7726Z" fill="black"/>
<path d="M42.4786 19.55H42.8636L44.0136 22.24V19.55H44.4836V23.6H44.1236L42.9586 20.835V23.6H42.4786V19.55Z" fill="black"/>
<path d="M52.9503 23.645C52.667 23.645 52.4453 23.5883 52.2853 23.475C52.1287 23.3617 52.0203 23.2033 51.9603 23C51.9003 22.7967 51.8703 22.5417 51.8703 22.235V19.55H52.4103V22.26C52.4103 22.5667 52.4453 22.8 52.5153 22.96C52.5887 23.12 52.7337 23.2 52.9503 23.2C53.167 23.2 53.3103 23.12 53.3803 22.96C53.4537 22.8 53.4903 22.5667 53.4903 22.26V19.55H54.0253V22.235C54.0253 22.5417 53.9953 22.7967 53.9353 23C53.8753 23.2033 53.767 23.3617 53.6103 23.475C53.4537 23.5883 53.2337 23.645 52.9503 23.645ZM52.2503 18.39H52.7903V18.945H52.2503V18.39ZM53.1103 18.39H53.6503V18.945H53.1103V18.39Z" fill="black"/>
<path d="M56.1202 19.55H56.9352C57.3452 19.55 57.6452 19.635 57.8352 19.805C58.0285 19.9717 58.1252 20.245 58.1252 20.625C58.1252 21.145 57.9585 21.46 57.6252 21.57L58.2002 23.6H57.6552L57.1252 21.7H56.6852V23.6H56.1202V19.55ZM56.9002 21.295C57.1435 21.295 57.3168 21.2467 57.4202 21.15C57.5268 21.0533 57.5802 20.8783 57.5802 20.625C57.5802 20.4583 57.5618 20.3283 57.5252 20.235C57.4885 20.1383 57.4235 20.0683 57.3302 20.025C57.2368 19.9783 57.1052 19.955 56.9352 19.955H56.6852V21.295H56.9002Z" fill="black"/>
<path d="M61.2579 23.645C60.9746 23.645 60.7529 23.5883 60.5929 23.475C60.4363 23.3617 60.3279 23.2033 60.2679 23C60.2079 22.7967 60.1779 22.5417 60.1779 22.235V19.55H60.7179V22.26C60.7179 22.5667 60.7529 22.8 60.8229 22.96C60.8963 23.12 61.0413 23.2 61.2579 23.2C61.4746 23.2 61.6179 23.12 61.6879 22.96C61.7613 22.8 61.7979 22.5667 61.7979 22.26V19.55H62.3329V22.235C62.3329 22.5417 62.3029 22.7967 62.2429 23C62.1829 23.2033 62.0746 23.3617 61.9179 23.475C61.7613 23.5883 61.5413 23.645 61.2579 23.645ZM60.5579 18.39H61.0979V18.945H60.5579V18.39ZM61.4179 18.39H61.9579V18.945H61.4179V18.39Z" fill="black"/>
<path d="M64.4278 19.55H64.8128L65.9628 22.24V19.55H66.4328V23.6H66.0728L64.9078 20.835V23.6H64.4278V19.55Z" fill="black"/>
<path d="M68.5694 19.55H69.1344V23.195H70.1694V23.6H68.5694V19.55Z" fill="black"/>
<path d="M72.0567 19.55H73.6267V19.97H72.6217V21.31H73.4367V21.71H72.6217V23.195H73.6367V23.6H72.0567V19.55Z" fill="black"/>
<path d="M75.5928 19.55H76.4078C76.8178 19.55 77.1178 19.635 77.3078 19.805C77.5012 19.9717 77.5978 20.245 77.5978 20.625C77.5978 21.145 77.4312 21.46 77.0978 21.57L77.6728 23.6H77.1278L76.5978 21.7H76.1578V23.6H75.5928V19.55ZM76.3728 21.295C76.6162 21.295 76.7895 21.2467 76.8928 21.15C76.9995 21.0533 77.0528 20.8783 77.0528 20.625C77.0528 20.4583 77.0345 20.3283 76.9978 20.235C76.9612 20.1383 76.8962 20.0683 76.8028 20.025C76.7095 19.9783 76.5778 19.955 76.4078 19.955H76.1578V21.295H76.3728Z" fill="black"/>
<path d="M79.7156 19.55H80.2706V23.6H79.7156V19.55ZM79.7206 18.49H80.2606V19.085H79.7206V18.49Z" fill="black"/>
<path d="M16 2.41C16 3.22186 15.3284 3.88 14.5 3.88C13.6716 3.88 13 3.22186 13 2.41C13 1.59814 13.6716 0.940002 14.5 0.940002C15.3284 0.940002 16 1.59814 16 2.41Z" fill="black"/>
<path fill-rule="evenodd" clip-rule="evenodd" d="M16.5 2.41C16.5 3.50748 15.595 4.38 14.5 4.38C13.405 4.38 12.5 3.50748 12.5 2.41C12.5 1.31253 13.405 0.440002 14.5 0.440002C15.595 0.440002 16.5 1.31253 16.5 2.41ZM14.5 3.88C15.3284 3.88 16 3.22186 16 2.41C16 1.59814 15.3284 0.940002 14.5 0.940002C13.6716 0.940002 13 1.59814 13 2.41C13 3.22186 13.6716 3.88 14.5 3.88Z" fill="white"/>
</svg>
